<svg width="24" height="24" viewBox="0 0 24 24" fill="none" xmlns="http://www.w3.org/2000/svg">
<path fill-rule="evenodd" clip-rule="evenodd" d="M9.75 13.8447L4.76191 9.56937C4.59567 9.42687 4.5 9.21883 4.5 8.99991V3.74998C4.5 3.33578 4.83579 3 5.25 3H18.75C19.1642 3 19.5 3.33578 19.5 3.74998V8.99991C19.5 9.18853 19.429 9.36905 19.3031 9.50652C19.2912 9.51942 19.2789 9.53195 19.2661 9.5441C19.2558 9.55384 19.2452 9.56329 19.2344 9.57252L14.25 13.8447V19.4997C14.25 19.8439 14.0158 20.1438 13.6819 20.2272L10.6819 20.9772C10.2086 21.0956 9.75 20.7376 9.75 20.2497V13.8447ZM16.7225 9.74989L13.0119 12.9303C12.8457 13.0728 12.75 13.2809 12.75 13.4998V18.9141L11.25 19.2891V13.4998C11.25 13.2809 11.1543 13.0728 10.9881 12.9303L6 8.65499V4.49997H18V8.24992H12.75C12.3358 8.24992 12 8.58569 12 8.99991C12 9.41412 12.3358 9.74989 12.75 9.74989H16.7225Z" fill="#2B2B2B"/>
</svg>