<svg width="150" height="24" viewBox="0 0 150 24" fill="none" xmlns="http://www.w3.org/2000/svg">
<path fill-rule="evenodd" clip-rule="evenodd" d="M69.962 11.9778C69.962 10.8107 70.154 9.73963 70.5382 8.76456C70.9371 7.78948 71.4985 6.94738 72.2224 6.23823C72.9464 5.52909 73.818 4.98246 74.8377 4.59834C75.8567 4.19945 77.0015 4 78.2721 4C79.5136 4 80.6438 4.18467 81.6628 4.55402C82.6971 4.92337 83.5764 5.45522 84.3 6.14959C85.0235 6.82922 85.5852 7.66388 85.9842 8.65376C86.3832 9.64356 86.5827 10.7664 86.5827 12.0222C86.5827 13.1893 86.3832 14.2604 85.9842 15.2355C85.5998 16.2106 85.0458 17.0527 84.3222 17.7618C83.5979 18.4709 82.7193 19.0249 81.685 19.4238C80.6653 19.8079 79.5282 20 78.2721 20C77.0314 20 75.8935 19.8228 74.8592 19.4682C73.8403 19.0988 72.9686 18.5744 72.2446 17.8948C71.5207 17.2004 70.9592 16.3583 70.5603 15.3685C70.1615 14.3638 69.962 13.2336 69.962 11.9778ZM72.8873 12C72.8873 12.7535 72.9978 13.4626 73.2195 14.1275C73.4558 14.7922 73.8034 15.3685 74.2615 15.856C74.7188 16.3435 75.2805 16.735 75.9457 17.0305C76.6248 17.3112 77.4082 17.4515 78.2944 17.4515C79.1215 17.4515 79.8604 17.3185 80.5103 17.0527C81.1756 16.7867 81.7365 16.4174 82.1945 15.9446C82.6672 15.4718 83.0293 14.903 83.2802 14.2383C83.5319 13.5587 83.657 12.8126 83.657 12C83.657 11.2465 83.5388 10.5374 83.3025 9.8726C83.0815 9.20774 82.7416 8.63158 82.2835 8.14405C81.8255 7.65651 81.2569 7.2724 80.5771 6.99173C79.9118 6.69625 79.1369 6.54848 78.2499 6.54848C77.4227 6.54848 76.6769 6.68144 76.0117 6.94738C75.3472 7.21332 74.7779 7.59006 74.3052 8.0776C73.8472 8.55033 73.4927 9.11912 73.2418 9.78398C73.0054 10.4488 72.8873 11.1874 72.8873 12ZM2.77009 14.9253V19.7563H0V4.24382H5.16341C7.6159 4.24382 9.38873 4.68703 10.482 5.57346C11.59 6.44511 12.1441 7.75262 12.1441 9.49591C12.1441 11.3131 11.5531 12.6723 10.3712 13.5734C9.18931 14.4747 7.45339 14.9253 5.16341 14.9253H2.77009ZM2.77009 6.79228V12.3768H5.36291C6.663 12.3768 7.63808 12.1552 8.28813 11.712C8.93818 11.254 9.2632 10.4932 9.2632 9.42938C9.2632 8.46912 8.96027 7.78953 8.35457 7.39061C7.74887 6.99178 6.76643 6.79228 5.40718 6.79228H2.77009ZM17.9623 17.2078H26.3834V19.7563H15.1923V4.24382H17.9623V17.2078ZM40.2512 19.7563H43.1986L36.8164 4.24382H33.6696L27.3758 19.7563H30.1903L31.6529 16.0777H38.7665L40.2512 19.7563ZM35.1986 7.16902L37.7471 13.5292H32.6501L35.1986 7.16902ZM55.2369 6.79228H50.007V19.7563H47.2369V6.79228H42.0957V4.24382H55.2369V6.79228ZM60.3359 13.7064H67.9149V11.1579H60.3359V6.79228H68.2695V4.24382H57.5658V19.7563H60.3359V13.7064ZM94.3845 14.9253C94.8571 14.9253 95.3152 14.9031 95.7579 14.8588L99.0826 19.7563H102.406L98.4396 14.2383C100.39 13.3814 101.365 11.8006 101.365 9.49591C101.365 7.75262 100.811 6.44511 99.7026 5.57346C98.6099 4.68703 96.8367 4.24382 94.3845 4.24382H89.4868V19.7563H92.2568V14.9253H94.3845ZM92.2568 12.3768V6.79228H94.6277C95.9873 6.79228 96.9695 6.99178 97.5756 7.39061C98.181 7.78953 98.4841 8.46912 98.4841 9.42938C98.4841 10.4932 98.1588 11.254 97.5089 11.712C96.859 12.1552 95.8838 12.3768 94.584 12.3768H92.2568ZM119.34 8.09975L114.353 16.3435H112.958L107.86 8.21062V19.7563H105.091V4.24382H108.592L113.733 12.6871L118.83 4.24382H122.11V19.7563H119.34V8.09975ZM130.042 4.24382L136.424 19.7563H139.173L145.466 4.24382H142.652L137.843 16.3435L133.011 4.24382H130.042Z" fill="#2B2B2B"/>
</svg>
